<svg xmlns="http://www.w3.org/2000/svg" viewBox="0 0 100 100" width="100" height="100">
  <defs>
    <linearGradient id="bgGradient" x1="0%" y1="0%" x2="100%" y2="100%">
      <stop offset="0%" style="stop-color:#0f7b0f;stop-opacity:1" />
      <stop offset="100%" style="stop-color:#107c10;stop-opacity:1" />
    </linearGradient>
    <linearGradient id="centerGradient" x1="0%" y1="0%" x2="100%" y2="100%">
      <stop offset="0%" style="stop-color:#ffffff;stop-opacity:1" />
      <stop offset="100%" style="stop-color:#e0e0e0;stop-opacity:1" />
    </linearGradient>
  </defs>
  
  <!-- Background circle -->
  <circle cx="50" cy="50" r="48" fill="url(#bgGradient)" stroke="#0a5d0a" stroke-width="2"/>
  
  <!-- Xbox 360 ring design -->
  <circle cx="50" cy="50" r="35" fill="none" stroke="#ffffff" stroke-width="3" opacity="0.8"/>
  
  <!-- Four quadrant arcs representing Xbox 360 ring of light -->
  <path d="M 50 15 A 35 35 0 0 1 85 50" fill="none" stroke="#ffffff" stroke-width="4" stroke-linecap="round"/>
  <path d="M 85 50 A 35 35 0 0 1 50 85" fill="none" stroke="#ffffff" stroke-width="4" stroke-linecap="round"/>
  <path d="M 50 85 A 35 35 0 0 1 15 50" fill="none" stroke="#ffffff" stroke-width="4" stroke-linecap="round"/>
  <path d="M 15 50 A 35 35 0 0 1 50 15" fill="none" stroke="#ffffff" stroke-width="4" stroke-linecap="round"/>
  
  <!-- Center Xbox logo inspired design -->
  <circle cx="50" cy="50" r="12" fill="url(#centerGradient)"/>
  
  <!-- X design in center -->
  <path d="M 42 42 L 58 58 M 58 42 L 42 58" stroke="#107c10" stroke-width="3" stroke-linecap="round"/>
  
  <!-- Small decorative elements -->
  <circle cx="50" cy="25" r="2" fill="#ffffff" opacity="0.9"/>
  <circle cx="75" cy="50" r="2" fill="#ffffff" opacity="0.9"/>
  <circle cx="50" cy="75" r="2" fill="#ffffff" opacity="0.9"/>
  <circle cx="25" cy="50" r="2" fill="#ffffff" opacity="0.9"/>
</svg>